<svg id="svg" version="1.1" xmlns="http://www.w3.org/2000/svg" xmlns:xlink="http://www.w3.org/1999/xlink" width="400" height="400" viewBox="0, 0, 400,400"><g id="svgg"><path id="path0" d="M94.813 91.647 C 93.085 91.964,92.595 92.459,93.092 93.388 C 93.285 93.749,93.232 94.134,92.931 94.546 C 92.203 95.541,92.258 305.126,92.986 305.406 C 94.306 305.912,305.122 305.611,305.849 305.102 L 306.560 304.604 306.560 280.526 C 306.560 262.225,306.468 256.356,306.176 256.064 C 305.528 255.416,292.354 255.531,291.695 256.191 C 291.240 256.646,291.187 258.485,291.209 273.043 C 291.231 287.565,291.177 289.440,290.725 289.892 C 289.911 290.706,108.836 290.836,108.240 290.024 C 107.768 289.379,107.641 107.681,108.112 107.389 C 108.521 107.137,289.991 107.119,290.640 107.371 C 290.948 107.491,291.204 107.825,291.208 108.114 C 291.213 108.403,291.209 115.941,291.200 124.864 C 291.184 140.937,291.190 141.092,291.844 141.442 C 292.722 141.912,305.746 141.743,306.233 141.256 C 306.841 140.646,306.678 92.780,306.065 92.168 C 305.630 91.733,294.389 91.687,201.741 91.749 C 144.631 91.787,97.584 91.711,97.192 91.580 C 96.800 91.449,95.730 91.480,94.813 91.647 M142.711 173.657 C 142.276 173.952,140.480 175.427,138.720 176.934 C 135.754 179.473,133.591 181.357,123.814 189.919 C 121.804 191.679,119.736 193.479,119.217 193.919 C 116.366 196.341,116.479 195.780,116.484 207.480 C 116.490 220.408,116.283 220.142,122.192 214.777 C 124.289 212.872,127.930 209.647,130.283 207.610 C 132.635 205.574,136.144 202.509,138.080 200.799 C 144.622 195.023,143.596 194.858,152.711 203.153 C 154.520 204.799,157.008 207.043,158.240 208.139 C 159.472 209.236,162.496 211.930,164.960 214.126 C 171.694 220.128,171.200 220.635,171.200 207.731 C 171.200 196.134,171.164 195.966,168.168 193.491 C 167.284 192.761,166.398 192.018,166.201 191.841 C 166.003 191.665,164.288 190.152,162.391 188.480 C 156.293 183.108,151.893 179.151,149.760 177.123 C 145.709 173.271,144.301 172.578,142.711 173.657 M204.791 173.657 C 203.309 174.663,184.082 191.403,180.559 194.755 L 178.560 196.657 178.560 207.249 C 178.560 220.707,178.197 220.318,185.016 214.177 C 192.644 207.307,203.721 197.658,204.640 197.083 C 206.514 195.911,207.612 196.441,212.000 200.638 C 212.880 201.480,215.544 203.869,217.920 205.948 C 220.296 208.026,222.312 209.814,222.400 209.921 C 223.416 211.154,231.842 218.240,232.291 218.240 C 233.239 218.240,233.280 217.789,233.280 207.324 C 233.280 195.541,233.474 196.272,229.434 192.800 C 227.797 191.392,226.225 190.024,225.942 189.760 C 225.659 189.496,224.063 188.065,222.394 186.580 C 220.725 185.096,219.286 183.775,219.197 183.645 C 219.107 183.516,218.442 182.931,217.720 182.345 C 216.998 181.759,214.839 179.852,212.923 178.106 C 207.289 172.974,206.464 172.522,204.791 173.657 M244.373 173.653 C 244.256 173.771,244.160 178.700,244.160 184.607 L 244.160 195.348 246.205 197.305 C 247.330 198.381,249.958 200.751,252.045 202.571 C 254.132 204.391,256.083 206.126,256.381 206.426 C 256.678 206.726,258.863 208.654,261.236 210.711 C 265.913 214.764,266.028 214.906,265.485 215.904 C 265.136 216.547,260.081 222.106,255.214 227.200 C 253.953 228.520,250.414 232.336,247.348 235.680 C 244.283 239.024,239.895 243.776,237.597 246.240 C 231.300 252.990,231.118 253.560,232.785 261.280 C 233.051 262.512,233.271 264.294,233.274 265.239 C 233.289 269.685,234.400 274.560,235.400 274.560 C 235.917 274.560,237.353 273.038,254.400 254.417 C 256.072 252.591,257.588 250.940,257.770 250.748 C 257.951 250.557,261.545 246.656,265.757 242.080 C 269.969 237.504,273.577 233.616,273.776 233.440 C 273.975 233.264,277.504 229.448,281.617 224.960 C 285.731 220.472,290.902 214.849,293.108 212.465 C 299.342 205.730,303.204 201.544,304.313 200.320 C 306.403 198.014,306.390 198.103,306.498 185.574 C 306.631 170.128,307.641 170.334,295.646 183.360 C 290.864 188.552,285.496 194.382,283.716 196.315 C 278.978 201.462,278.831 201.600,278.095 201.600 C 277.725 201.600,276.437 200.772,275.233 199.760 C 272.735 197.660,258.885 185.364,258.400 184.816 C 258.224 184.617,256.568 183.148,254.720 181.552 C 252.872 179.956,250.077 177.478,248.509 176.045 C 245.880 173.643,244.932 173.095,244.373 173.653 " stroke="none" fill="#f5f5f6" fill-rule="evenodd"></path><path id="path1" d="M0.000 200.000 L 0.000 400.000 200.000 400.000 L 400.000 400.000 400.000 200.000 L 400.000 0.000 200.000 0.000 L 0.000 0.000 0.000 200.000 M201.741 91.749 C 294.389 91.687,305.630 91.733,306.065 92.168 C 306.678 92.780,306.841 140.646,306.233 141.256 C 305.746 141.743,292.722 141.912,291.844 141.442 C 291.190 141.092,291.184 140.937,291.200 124.864 C 291.209 115.941,291.213 108.403,291.208 108.114 C 291.204 107.825,290.948 107.491,290.640 107.371 C 289.991 107.119,108.521 107.137,108.112 107.389 C 107.641 107.681,107.768 289.379,108.240 290.024 C 108.836 290.836,289.911 290.706,290.725 289.892 C 291.177 289.440,291.231 287.565,291.209 273.043 C 291.187 258.485,291.240 256.646,291.695 256.191 C 292.354 255.531,305.528 255.416,306.176 256.064 C 306.468 256.356,306.560 262.225,306.560 280.526 L 306.560 304.604 305.849 305.102 C 305.122 305.611,94.306 305.912,92.986 305.406 C 92.258 305.126,92.203 95.541,92.931 94.546 C 93.232 94.134,93.285 93.749,93.092 93.388 C 92.442 92.174,95.257 90.933,97.192 91.580 C 97.584 91.711,144.631 91.787,201.741 91.749 M146.272 174.132 C 147.046 174.689,148.616 176.035,149.760 177.123 C 151.893 179.151,156.293 183.108,162.391 188.480 C 164.288 190.152,166.003 191.665,166.201 191.841 C 166.398 192.018,167.284 192.761,168.168 193.491 C 171.164 195.966,171.200 196.134,171.200 207.731 C 171.200 220.635,171.694 220.128,164.960 214.126 C 162.496 211.930,159.472 209.236,158.240 208.139 C 157.008 207.043,154.520 204.799,152.711 203.153 C 143.596 194.858,144.622 195.023,138.080 200.799 C 136.144 202.509,132.635 205.574,130.283 207.610 C 127.930 209.647,124.289 212.872,122.192 214.777 C 116.283 220.142,116.490 220.408,116.484 207.480 C 116.479 195.780,116.366 196.341,119.217 193.919 C 119.736 193.479,121.804 191.679,123.814 189.919 C 145.665 170.785,143.618 172.224,146.272 174.132 M208.192 174.026 C 208.878 174.525,211.008 176.361,212.923 178.106 C 214.839 179.852,216.998 181.759,217.720 182.345 C 218.442 182.931,219.107 183.516,219.197 183.645 C 219.286 183.775,220.725 185.096,222.394 186.580 C 224.063 188.065,225.659 189.496,225.942 189.760 C 226.225 190.024,227.797 191.392,229.434 192.800 C 233.474 196.272,233.280 195.541,233.280 207.324 C 233.280 217.789,233.239 218.240,232.291 218.240 C 231.842 218.240,223.416 211.154,222.400 209.921 C 222.312 209.814,220.296 208.026,217.920 205.948 C 215.544 203.869,212.880 201.480,212.000 200.638 C 207.612 196.441,206.514 195.911,204.640 197.083 C 203.721 197.658,192.644 207.307,185.016 214.177 C 178.197 220.318,178.560 220.707,178.560 207.249 L 178.560 196.657 180.559 194.755 C 184.082 191.403,203.309 174.663,204.791 173.657 C 205.914 172.895,206.761 172.987,208.192 174.026 M248.509 176.045 C 250.077 177.478,252.872 179.956,254.720 181.552 C 256.568 183.148,258.224 184.617,258.400 184.816 C 258.885 185.364,272.735 197.660,275.233 199.760 C 276.437 200.772,277.725 201.600,278.095 201.600 C 278.831 201.600,278.978 201.462,283.716 196.315 C 306.583 171.478,305.114 172.958,306.091 173.769 C 306.538 174.140,306.585 175.508,306.498 185.574 C 306.390 198.103,306.403 198.014,304.313 200.320 C 303.204 201.544,299.342 205.730,293.108 212.465 C 290.902 214.849,285.731 220.472,281.617 224.960 C 277.504 229.448,273.975 233.264,273.776 233.440 C 273.577 233.616,269.969 237.504,265.757 242.080 C 261.545 246.656,257.951 250.557,257.770 250.748 C 257.588 250.940,256.072 252.591,254.400 254.417 C 237.353 273.038,235.917 274.560,235.400 274.560 C 234.400 274.560,233.289 269.685,233.274 265.239 C 233.271 264.294,233.051 262.512,232.785 261.280 C 231.118 253.560,231.300 252.990,237.597 246.240 C 239.895 243.776,244.283 239.024,247.348 235.680 C 250.414 232.336,253.953 228.520,255.214 227.200 C 260.081 222.106,265.136 216.547,265.485 215.904 C 266.028 214.906,265.913 214.764,261.236 210.711 C 258.863 208.654,256.678 206.726,256.381 206.426 C 256.083 206.126,254.132 204.391,252.045 202.571 C 249.958 200.751,247.330 198.381,246.205 197.305 L 244.160 195.348 244.160 184.607 C 244.160 178.700,244.256 173.771,244.373 173.653 C 244.932 173.095,245.880 173.643,248.509 176.045 " stroke="none" fill="#040404" fill-rule="evenodd"></path></g></svg>